<?xml version="1.0" encoding="UTF-8"?>
<svg id="Calque_2" data-name="Calque 2" xmlns="http://www.w3.org/2000/svg" xmlns:xlink="http://www.w3.org/1999/xlink" viewBox="0 0 529.75 122.88">
  <defs>
    <style>
      .cls-1 {
        fill: url(#Dégradé_sans_nom_4778-8);
      }

      .cls-2 {
        fill: url(#Dégradé_sans_nom_4778-7);
      }

      .cls-3 {
        fill: url(#Dégradé_sans_nom_4778-3);
      }

      .cls-4 {
        fill: #fff;
      }

      .cls-5 {
        fill: url(#Dégradé_sans_nom_4778);
      }

      .cls-6 {
        fill: #c2001b;
      }

      .cls-7 {
        fill: #c9431f;
      }

      .cls-8 {
        fill: url(#Dégradé_sans_nom_5159);
      }

      .cls-9 {
        fill: #a20f00;
      }

      .cls-10 {
        fill: url(#Dégradé_sans_nom_4778-4);
      }

      .cls-11 {
        fill: url(#Dégradé_sans_nom_5208);
      }

      .cls-12 {
        fill: url(#Dégradé_sans_nom_4778-2);
      }

      .cls-13 {
        fill: url(#Dégradé_sans_nom_4778-6);
      }

      .cls-14 {
        fill: url(#Dégradé_sans_nom_4778-5);
      }

      .cls-15 {
        fill: #a00e15;
      }

      .cls-16 {
        fill: #c43f1c;
      }
    </style>
    <linearGradient id="Dégradé_sans_nom_5208" data-name="Dégradé sans nom 5208" x1="20.66" y1="114.33" x2="63.21" y2="-2.64" gradientUnits="userSpaceOnUse">
      <stop offset=".08" stop-color="#c2001b"/>
      <stop offset=".22" stop-color="#c3021b"/>
      <stop offset=".32" stop-color="#c80c1c"/>
      <stop offset=".4" stop-color="#d01b1d"/>
      <stop offset=".48" stop-color="#dc311f"/>
      <stop offset=".55" stop-color="#eb4e22"/>
      <stop offset=".56" stop-color="#ee5223"/>
      <stop offset=".68" stop-color="#c83215"/>
      <stop offset=".82" stop-color="#a71709"/>
      <stop offset=".93" stop-color="#920602"/>
      <stop offset="1" stop-color="#8b0000"/>
    </linearGradient>
    <linearGradient id="Dégradé_sans_nom_4778" data-name="Dégradé sans nom 4778" x1="94.37" y1="96.45" x2="94.31" y2="96.6" gradientUnits="userSpaceOnUse">
      <stop offset=".04" stop-color="#c2001b"/>
      <stop offset=".11" stop-color="#c51b2e"/>
      <stop offset=".41" stop-color="#d28c7f"/>
      <stop offset=".45" stop-color="#cc8175"/>
      <stop offset=".83" stop-color="#9d2421"/>
      <stop offset="1" stop-color="#8b0000"/>
    </linearGradient>
    <linearGradient id="Dégradé_sans_nom_4778-2" data-name="Dégradé sans nom 4778" x1="95.39" y1="96.34" x2="95.32" y2="96.51" xlink:href="#Dégradé_sans_nom_4778"/>
    <linearGradient id="Dégradé_sans_nom_4778-3" data-name="Dégradé sans nom 4778" x1="97.13" y1="83.97" x2="97.12" y2="84" xlink:href="#Dégradé_sans_nom_4778"/>
    <linearGradient id="Dégradé_sans_nom_4778-4" data-name="Dégradé sans nom 4778" x1="97.39" y1="84.11" x2="97.39" y2="84.11" xlink:href="#Dégradé_sans_nom_4778"/>
    <linearGradient id="Dégradé_sans_nom_4778-5" data-name="Dégradé sans nom 4778" x1="100.81" y1="90.95" x2="100.73" y2="91.14" xlink:href="#Dégradé_sans_nom_4778"/>
    <linearGradient id="Dégradé_sans_nom_4778-6" data-name="Dégradé sans nom 4778" x1="99.82" y1="85.06" x2="96.62" y2="92.88" xlink:href="#Dégradé_sans_nom_4778"/>
    <linearGradient id="Dégradé_sans_nom_5159" data-name="Dégradé sans nom 5159" x1="95.17" y1="16.28" x2="52.95" y2="119.43" gradientUnits="userSpaceOnUse">
      <stop offset=".08" stop-color="#c2001b"/>
      <stop offset=".13" stop-color="#c5061b"/>
      <stop offset=".2" stop-color="#ce181d"/>
      <stop offset=".28" stop-color="#de3420"/>
      <stop offset=".34" stop-color="#ee5223"/>
      <stop offset=".76" stop-color="#980a04"/>
      <stop offset=".82" stop-color="#8b0000"/>
    </linearGradient>
    <linearGradient id="Dégradé_sans_nom_4778-7" data-name="Dégradé sans nom 4778" x1="97.62" y1="84.22" x2="97.6" y2="84.27" xlink:href="#Dégradé_sans_nom_4778"/>
    <linearGradient id="Dégradé_sans_nom_4778-8" data-name="Dégradé sans nom 4778" x1="100.54" y1="87.45" x2="100.37" y2="87.85" xlink:href="#Dégradé_sans_nom_4778"/>
  </defs>
  <g id="Obliance">
    <g id="Obliance-2" data-name="Obliance">
      <path class="cls-15" d="M70.59,109.79c0,.49-.4.89-.89.89s-.9-.4-.9-.89.4-.9.9-.9.89.4.89.9Z"/>
      <path class="cls-16" d="M110.89,59.77c0,.49-.4.89-.89.89s-.9-.4-.9-.89.4-.9.9-.9.89.4.89.9Z"/>
      <path class="cls-9" d="M83.29,101.94c.15.22.24.49.24.77s-.09.55-.24.77c-.05.07-.11.14-.17.2-.25.25-.59.4-.97.4-.75,0-1.37-.61-1.37-1.37s.62-1.37,1.37-1.37c.38,0,.72.15.97.4.06.06.12.13.17.2Z"/>
      <path class="cls-7" d="M107.9,76.78c.15.22.24.49.24.77s-.09.55-.24.77c-.05.07-.11.14-.17.2-.25.25-.59.4-.97.4-.75,0-1.37-.61-1.37-1.37s.62-1.37,1.37-1.37c.38,0,.72.15.97.4.06.06.12.13.17.2Z"/>
      <path id="Obliance-3" data-name="Obliance" class="cls-11" d="M23.2,60.34c-.02.36-.03.73-.03,1.1,0,1.65.1,3.27.31,4.86,0,.02,0,.03,0,.05v.04c2.23,24.59,17.01,45.57,37.87,56.48-15.23-.02-29.16-5.58-39.89-14.78C8.19,96.72-.17,79.76,0,60.84.3,29.35,24.71,3.31,55.45.3h0c1.98-.21,3.99-.3,6.01-.3,9.64,0,18.77,2.23,26.89,6.19-3.38-.85-21.87-5.11-39.49,6.12-12.5,7.97-16.61,22.22-18.35,26.59-4.42,6.03-7.1,13.4-7.32,21.39v.04Z"/>
      <g>
        <path class="cls-6" d="M199.09,74.73c0,20.35-9.68,31.24-32.78,31.24-10.34,0-20.02-1.98-29.15-6.16V21.27h11.77v32.45c6.16-7.26,13.86-10.45,23.98-10.45,17.16,0,26.18,11.22,26.18,31.46ZM187.1,74.84c0-13.53-4.95-21.12-17.82-21.12-9.57,0-15.84,5.06-20.35,12.43v26.73c5.94,1.76,12.43,2.64,18.04,2.86,13.86,0,20.13-7.26,20.13-20.9Z"/>
        <path class="cls-6" d="M212.73,21.27h11.66v83.6h-11.66V21.27Z"/>
        <path class="cls-6" d="M239.46,27.76c0-4.18,2.53-6.71,7.7-6.71s7.7,2.53,7.7,6.71-2.64,6.82-7.7,6.82-7.7-2.53-7.7-6.82ZM241.33,44.37h11.66v60.5h-11.66v-60.5Z"/>
        <path class="cls-4" d="M322.4,68.35v36.52h-9.79l-1.54-10.01c-5.72,7.15-13.86,11.11-26.18,11.11-13.2,0-19.91-5.17-19.91-16.83s7.37-15.84,21.34-17.38l24.42-2.86v-1.65c0-10.23-4.95-12.87-15.84-12.87h-23.98l1.54-10.01h23.1c18.92,0,26.84,6.27,26.84,23.98ZM310.74,84.74v-7.81l-21.23,2.64c-8.8,1.21-12.54,2.97-12.54,8.91s3.3,8.47,10.89,8.47c10.34,0,17.93-4.18,22.88-12.21Z"/>
        <path class="cls-4" d="M397.09,67.36v37.51h-11.66v-36.3c0-10.34-3.52-14.74-14.3-14.74-9.68,0-16.28,4.18-20.79,11.77v39.27h-11.66v-60.5h9.79l1.43,9.24c6.05-7.48,13.42-10.34,23.65-10.34,15.4,0,23.54,6.82,23.54,24.09Z"/>
        <path class="cls-4" d="M410.18,74.62c0-20.35,11.22-30.25,32.78-30.25h17.16l1.65,10.01h-18.92c-13.97,0-20.68,6.38-20.68,20.24s6.71,20.24,20.68,20.24h19.14l-1.54,10.01h-17.49c-21.56,0-32.78-9.9-32.78-30.25Z"/>
        <path class="cls-4" d="M529.75,79.02h-47.85c1.43,10.89,8.36,15.84,20.24,15.84h23.1l-1.54,10.01h-21.56c-21.01,0-32.45-9.9-32.45-30.25s10.78-31.35,30.58-31.35,29.48,8.58,29.48,29.59v6.16ZM517.98,69.78c0-11.88-5.94-16.61-17.71-16.61s-17.27,4.73-18.37,16.61h36.08Z"/>
      </g>
    </g>
    <path class="cls-5" d="M94.55,96.53c-.1,0-.2.02-.31.02-.05,0-.09,0-.13-.01.15,0,.29,0,.44,0Z"/>
    <path class="cls-12" d="M95.55,96.41c-.07.02-.14.03-.21.04-.06.01-.13.02-.19.02.13-.01.26-.04.4-.06Z"/>
    <path class="cls-3" d="M97.35,84.1c-.11-.06-.22-.11-.33-.16-.04-.02-.09-.05-.13-.07.1.04.2.08.29.13.02.01.04.02.06.03.04.02.07.04.11.07Z"/>
    <path class="cls-10" d="M97.42,84.13s-.05-.02-.07-.03c.02,0,.04,0,.06.02h.01Z"/>
    <path class="cls-14" d="M100.79,90.95c-.01.08-.03.15-.05.22.02-.07.03-.14.04-.21,0-.01.01-.01.01-.01Z"/>
    <path class="cls-13" d="M97.41,84.12c-.06-.03-.12-.06-.17-.09-.02-.01-.04-.02-.06-.03-.05-.03-.11-.05-.16-.06.11.05.22.1.33.16.02,0,.04.02.07.03h-.01ZM97.43,84.14c.12.07.24.13.35.21-.02-.02-.05-.04-.07-.05-.1-.05-.19-.11-.28-.16ZM100.54,87.88c-.02-.06-.03-.12-.05-.17-.04-.11-.08-.22-.14-.33.07.18.14.36.2.55,0-.01-.01-.03-.01-.05ZM98.55,94.95c.15-.12.29-.23.42-.37.14-.14.27-.29.38-.44-.24.3-.51.56-.8.81ZM97.41,84.12c-.06-.03-.12-.06-.17-.09-.02-.01-.04-.02-.06-.03-.05-.03-.11-.05-.16-.06.11.05.22.1.33.16.02,0,.04.02.07.03h-.01ZM98.55,94.95c.15-.12.29-.23.42-.37.14-.14.27-.29.38-.44-.24.3-.51.56-.8.81ZM97.43,84.14c.12.07.24.13.35.21-.02-.02-.05-.04-.07-.05-.1-.05-.19-.11-.28-.16ZM100.54,87.88c-.02-.06-.03-.12-.05-.17-.04-.11-.08-.22-.14-.33.07.18.14.36.2.55,0-.01-.01-.03-.01-.05ZM100.54,87.88c-.02-.06-.03-.12-.05-.17-.04-.11-.08-.22-.14-.33.07.18.14.36.2.55,0-.01-.01-.03-.01-.05ZM98.55,94.95c.15-.12.29-.23.42-.37.14-.14.27-.29.38-.44-.24.3-.51.56-.8.81ZM97.43,84.14c.12.07.24.13.35.21-.02-.02-.05-.04-.07-.05-.1-.05-.19-.11-.28-.16ZM97.24,84.03s-.04-.02-.06-.03c-.05-.03-.11-.05-.16-.06.11.05.22.1.33.16.02,0,.04.02.07.03h-.01c-.06-.04-.12-.07-.17-.1ZM100.54,87.88c-.02-.06-.03-.12-.05-.17-.04-.11-.08-.22-.14-.33.07.18.14.36.2.55,0-.01-.01-.03-.01-.05ZM98.55,94.95c.15-.12.29-.23.42-.37.14-.14.27-.29.38-.44-.24.3-.51.56-.8.81ZM97.43,84.14c.12.07.24.13.35.21-.02-.02-.05-.04-.07-.05-.1-.05-.19-.11-.28-.16ZM97.24,84.03s-.04-.02-.06-.03c-.05-.03-.11-.05-.16-.06.11.05.22.1.33.16.02,0,.04.02.07.03h-.01c-.06-.04-.12-.07-.17-.1ZM97.24,84.03s.07.04.11.07c.02,0,.04,0,.06.02-.06-.03-.12-.06-.17-.09ZM98.55,94.95c.15-.12.29-.23.42-.37.14-.14.27-.29.38-.44-.24.3-.51.56-.8.81ZM97.43,84.14c.12.07.24.13.35.21-.02-.02-.05-.04-.07-.05-.1-.05-.19-.11-.28-.16ZM100.54,87.88c-.02-.06-.03-.12-.05-.17-.04-.11-.08-.22-.14-.33.07.18.14.36.2.55,0-.01-.01-.03-.01-.05Z"/>
    <path class="cls-8" d="M120.48,44.41c-1.39-4.82-3.56-8.71-5.48-11.73-1.06-1.65-2.45-3.13-3.75-4.61-3.34-3.83-8.71-9.1-17.36-12.28-7.31-2.67-13.79-3.01-17.98-2.88h-.01c-.44.03-.89.07-1.33.12-.08,0-.16.02-.24.03-.39.05-.79.1-1.18.16-1.07.17-2.11.38-3.12.62-.4.09-.8.19-1.2.3-.54.15-1.09.3-1.61.46-.04,0-.06.02-.1.04-.41.13-.82.27-1.21.4-.19.06-.38.13-.56.2-.28.1-.54.2-.81.3-.22.09-.44.18-.65.26-.41.17-.82.34-1.22.51-.42.19-.83.39-1.24.58-.4.2-.8.4-1.19.6-.26.12-.52.26-.77.39-.67.36-1.32.73-1.92,1.09-1.22.73-2.31,1.47-3.28,2.15-1.21.86-2.21,1.66-2.98,2.32-.3.26-.56.49-.8.69,0,.01-.02.02-.03.03-.23.21-.42.39-.58.54-.03.02-.05.05-.08.07-.05.04-.09.08-.13.12-.06.07-.11.12-.15.16-.02.02-.04.03-.05.05-.02.02-.03.03-.04.04l-.02.02c.16-.05.33-.1.51-.15.16-.05.33-.11.5-.16,1.83-.54,3.71-.95,5.63-1.22.32-.05.64-.09.97-.12.03-.01.06-.01.1-.01.19-.03.39-.05.58-.06.19-.02.39-.03.58-.05,1.02-.08,2.04-.13,3.07-.13,1.57,0,3.12.09,4.64.29.52.06,1.05.13,1.57.22.3.05.59.1.89.15.24.05.49.09.73.14,2.3.48,4.52,1.16,6.64,2.03.69.29,1.36.58,2.02.91.33.15.67.32,1,.49,12.74,6.58,21.29,20.12,20.65,35.6-.2,4.66-1.25,9.11-2.99,13.21h0s-.02.05-.02.08c-.32-.03-.66-.05-1.03-.06-.32,0-.62.01-.9.03l-1.79.02c-1.76.03-1.58,1.56-2.25,2.76-.23.43-1.02.69-1.44.49-.52-.25-.92-.62-1.44-.8-.81-.29-1.47.05-2.01.64-.77.83-1.6,1.61-2.3,2.5-.59.76-.21,1.74.38,2.29.27.25.34.85.24,1.13-.58,1.67-3.24.62-3.22,3.17v3.01c.02.86.59,1.36,1.45,1.68.05.01.09.03.14.05-1.14.76-2.33,1.46-3.56,2.08-.39.21-.78.41-1.18.6-.95.46-1.93.87-2.95,1.25-.54.2-1.09.39-1.63.57-.55.18-1.1.34-1.66.49-.42.12-.85.23-1.29.33-.16.04-.32.07-.48.11-.42.1-.85.18-1.28.26-.01.01-.02.01-.03.01-.19.03-.38.07-.57.1-.22.04-.44.08-.66.1-.38.06-.75.11-1.13.15-.28.04-.56.07-.84.09-.27.03-.54.05-.8.07-.27.01-.54.03-.81.05-.07,0-.15.01-.22.01-.08.01-.17.01-.25.02s-.16.01-.24.01h-.12c-8.69.28-16.75-2.33-23.29-6.97-.02-.01-.05-.03-.07-.05-8.46-6.01-14.36-15.39-15.75-26.17.03.29.05.58.09.87.01.07.02.14.03.21-.01.03-.01.06.01.08.02.3.05.58.09.87.02.24.05.47.09.7.07.6.16,1.2.25,1.8.04.25.08.5.13.75v.04c.06.4.13.8.21,1.2,0,.01,0,.02.01.03.01.09.03.19.05.28.08.45.17.89.27,1.33.09.43.18.85.28,1.27.09.42.19.85.3,1.27.05.21.11.42.16.63.05.21.1.41.17.62.15.58.31,1.14.48,1.71h0c.08.28.16.55.25.82.01.08.04.16.07.23.07.25.15.5.23.74.08.28.18.55.28.82.15.47.31.93.48,1.39.19.55.4,1.09.61,1.62.09.26.19.51.3.76.23.59.48,1.18.73,1.76.3.68.6,1.35.92,2.02.02.05.05.1.07.15.18.38.36.78.55,1.16h0s.05.09.07.13c.07.12.13.24.19.36.11.21.21.42.32.62.15.29.3.58.45.86.04.08.08.15.13.23,0,.02.01.05.03.07.03.06.07.11.1.17.02.04.05.09.08.13.11.2.23.41.34.61.33.6.68,1.2,1.04,1.79.29.48.58.96.88,1.44,2.39,3.75,5.11,7.26,8.15,10.49.29.32.58.63.9.94.15.17.32.35.5.52.51.52,1.03,1.03,1.56,1.53,1.54,1.47,3.16,2.87,4.83,4.19.15.12.31.24.47.37,1.04.81,2.11,1.6,3.2,2.35.45.32.91.63,1.37.92.24.17.48.32.73.48.34.22.68.44,1.03.64,1.42.89,2.88,1.72,4.37,2.5h.01s.01.01.01.01h.08c8.49,0,16.57-1.72,23.92-4.83.46-.2.92-.39,1.37-.6,19.11-8.64,33.01-26.78,35.68-48.39.01-.06.02-.11.02-.17.04-.32.08-.63.11-.95.22-2.13.34-4.3.34-6.5,0-8.69-2.4-17.03-2.4-17.03ZM84.88,101.3c.85,1.75.06,3.49-1.51,4.37-.76.42-1.42.83-2.23,1.19-2.97,1.32-5.94,2.4-9.24,3.12-.3,1.28-1.42,2.19-2.63,1.93-1.06-.23-1.7-1.12-1.75-2-.06-1.1.57-1.93,1.48-2.2,1.04-.31,2.02.05,2.61,1.02,1.46-.26,2.79-.72,4.19-1.17,1.73-.55,3.35-1.14,5.05-2.03-1.12-.58-1.72-1.57-1.77-2.68-.04-1.15.5-2.3,1.55-2.86.81-.43,1.69-.45,2.61-.2l5.74-5.86,3.95-4.04-1.35-1.46c-.09-.1-.13-.22-.14-.32,0-.12.12-.19.27-.22l4.82-.94c.23-.04.47.01.6.15.09.09.19.31.15.53l-.81,5.19c-.03.14-.08.21-.15.24-.11.04-.2.02-.29-.08l-1.44-1.48-3.95,3.98-5.76,5.82ZM110.67,61.89c.06,2.26-.21,4.4-.43,6.56-.1.65-.19,1.3-.29,1.95-.43,1.57-.85,3.12-1.28,4.69.37.28.68.66.88,1.09h0s.03.06.04.08c0,.01.01.02.01.02.01.02.02.04.02.06.02.03.03.06.03.09,0,0,.02.01.01.02.14.34.21.71.21,1.1,0,.97-.45,1.81-1.15,2.38-.11.11-.21.18-.26.22-.02.02-.04.03-.05.04-.08.05-.16.09-.24.13-.08.04-.17.08-.25.11-.36.16-.76.24-1.17.24-.44,0-.86-.09-1.24-.27l-1.68,1.76c.62,1.1-.33,1.55-.91,2.79.38.69.48,1.63,1,2.22.48.53,2.48.53,2.52,1.27.04,1,0,1.97-.01,2.97,0,.77-1.93.68-2.53,1.27-.54.53-.6,1.48-1.02,2.14.17.63,1.6,2.06,1.16,2.57-.67.77-1.39,1.46-2.12,2.17-.29.29-.59.21-.93.04-1.99-1-.94-1.49-4.05-.09-.29.92-.48,1.7-.94,2.49h-3.47l-.93-2.53-1.92-.88,2.39-2.38c.23.07.46.13.69.17.11.03.22.05.32.07.05.01.09.01.13.02.14.02.28.04.41.04.14.02.28.02.42.02.02,0,.04,0,.06,0,.15,0,.29,0,.44,0,.2-.01.4-.03.6-.06.13-.01.26-.04.4-.06.17-.03.34-.07.51-.12.46-.12.92-.3,1.34-.54.36-.19.7-.43,1.02-.68.03-.03.06-.06.09-.09.01,0,.03-.02.04-.03.29-.25.56-.51.8-.81.13-.16.26-.33.38-.5.12-.18.23-.36.33-.55.1-.18.2-.38.28-.58.08-.19.16-.4.22-.6.05-.16.09-.31.13-.47.02-.09.04-.18.05-.27.02-.07.03-.14.04-.21,0-.01.01-.01.01-.01h0c.08-.56.1-1.12.04-1.69-.03-.22-.06-.43-.1-.65v-.02c-.05-.22-.11-.44-.18-.66-.06-.19-.13-.37-.2-.55-.06-.13-.12-.27-.18-.4-.07-.13-.14-.26-.22-.39-.06-.1-.12-.21-.19-.3-.07-.12-.15-.23-.23-.34-.17-.22-.35-.43-.54-.62-.05-.05-.09-.1-.14-.14-.11-.12-.23-.22-.36-.32-.03-.03-.07-.06-.11-.09-.11-.09-.22-.17-.33-.25-.09-.06-.18-.12-.27-.18-.11-.08-.23-.14-.35-.21,0,0-.01,0-.01-.01-.03-.01-.05-.02-.07-.03-.11-.06-.22-.11-.33-.16-.04-.02-.09-.05-.13-.07-.01,0-.01-.01-.02-.01-.09-.04-.19-.08-.28-.11-.02-.01-.03-.02-.05-.02-.3-.11-.61-.21-.92-.27-.16-.03-.32-.06-.48-.08-.1-.02-.2-.03-.31-.03-.34-.03-.68-.04-1.03-.01-.16.01-.32.03-.48.05-.16.02-.32.06-.47.09-.16.04-.32.08-.48.13,0,.01-.01.01-.01.02-2.73.8-4.73,3.3-4.73,6.31,0,.94.19,1.83.55,2.63l-2.41,2.4-1.04-2.35c-.31-.19-.62-.29-.92-.37-.88-.22-1.61-.15-1.63-.96-.02-1.03-.03-2.06,0-3.12,2.26-1.02,2.4-.1,3.16-2.75.16-.35-.15-.79-.16-1.21-.09-.1-.17-.29-.28-.37-.03-.47-.7-.9-.15-1.45l2.24-2.23c2.32.9,1.92,1.59,4.56.16.6-.68.54-1.72,1.06-2.44,1.06-.02,2.12-.04,3.18-.06.05,0,.09.01.13.03.04.02.08.04.11.07.04.03.07.06.1.1.17.21.28.57.38.94.03.11.06.22.09.33,0,0,.01.01.01.02.03.11.06.23.1.34.09.29.2.54.35.7,2.74,1.62,2.36.67,3.88-.01.23-.1.51-.27.76-.16.22.1.24.32.45.38.23.07.47-.12.65-.27.31-.25.74-.62,1.27-1.15-.28-.46-.44-1.01-.44-1.59,0-.73.26-1.41.68-1.94.02-.02.03-.04.05-.06.03-.05.08-.1.12-.15.02-.02.04-.04.06-.05.13-.15.28-.26.41-.35.02-.01.04-.02.05-.03.05-.03.1-.06.14-.09.15-.09.31-.17.48-.23.09-.04.18-.07.28-.09.27-.09.55-.13.85-.13.23,0,.46.03.68.07.04,0,.09.01.13.02,1.21-4.15,1.89-8.38,1.79-12.68-1.13-.34-1.63-1.32-1.46-2.44.15-1.07,1.12-1.83,2.15-1.8,1.05.03,1.94.77,2.11,1.78.18,1.1-.36,2.05-1.49,2.51Z"/>
    <path class="cls-2" d="M97.71,84.3s.05.03.07.05c-.11-.08-.23-.14-.35-.21.09.05.18.11.28.16Z"/>
    <path class="cls-1" d="M100.54,87.88s.01.04.01.05c-.06-.19-.13-.37-.2-.55.07.17.13.33.19.5Z"/>
  </g>
</svg>